<?xml version="1.0" encoding="UTF-8"?>
<svg id="Layer_1" data-name="Layer 1" xmlns="http://www.w3.org/2000/svg" viewBox="0 0 1500 1000">
  <defs>
    <style>
      .cls-1 {
        fill: #473bf0;
      }
    </style>
  </defs>
  <path class="cls-1" d="M467.33,766.67h638.06c80.55,0,146.08-65.54,146.08-146.08,0-52.43-28.01-98.11-69.61-123.88,41.6-25.78,69.61-71.47,69.61-123.9,0-80.55-65.54-146.08-146.08-146.08h-185.45c15.4,12.75,28.96,27.44,39.73,44.37h145.71c56.09,0,101.71,45.63,101.71,101.71s-45.63,101.71-101.71,101.71h-82.59v44.37h82.59c56.09,0,101.71,45.63,101.71,101.69s-45.63,101.71-101.71,101.71H511.7v-159.04h-44.37v159.04h-120.25c-9.47-29.56-36.89-51.17-69.56-51.17-40.45,0-73.36,32.91-73.36,73.36s32.91,73.36,73.36,73.36c32.66,0,60.09-21.61,69.56-51.17h120.25Zm-189.8,6.8c-15.99,0-28.99-13-28.99-28.99s13-28.99,28.99-28.99,28.99,13,28.99,28.99-13,28.99-28.99,28.99Z"/>
  <path class="cls-1" d="M467.33,518.89h177.06v-44.37h-132.7v-159.06h-44.37v159.06H192.9c-9.47-29.58-36.89-51.19-69.58-51.19-40.45,0-73.36,32.91-73.36,73.38s32.91,73.36,73.36,73.36c32.68,0,60.11-21.61,69.58-51.17H467.33Zm-344.01,6.8c-15.99,0-28.99-13-28.99-28.99s13-29.01,28.99-29.01,29.01,13.02,29.01,29.01-13.02,28.99-29.01,28.99Z"/>
  <path class="cls-1" d="M1253.49,30.58H613.41c-80.55,0-146.08,65.53-146.08,146.08v50.07h-120.25c-9.47-29.56-36.89-51.17-69.56-51.17-40.45,0-73.36,32.91-73.36,73.36s32.91,73.36,73.36,73.36c32.66,0,60.09-21.61,69.56-51.17h452.17c56.09,0,101.71,45.63,101.71,101.71s-45.63,101.71-101.71,101.71h-84.12v205.31h44.37v-160.95h39.75c80.55,0,146.08-65.54,146.08-146.08s-65.54-146.08-146.08-146.08H511.7v-50.07c0-56.09,45.63-101.71,101.71-101.71h640.08c56.09,0,101.71,45.63,101.71,101.71V816.74c0,56.09-45.63,101.71-101.71,101.71H613.41c-56.09,0-101.71-45.63-101.71-101.71v-5.7h-44.37v5.7c0,80.55,65.53,146.08,146.08,146.08h640.08c80.55,0,146.08-65.54,146.08-146.08V176.66c0-80.55-65.54-146.08-146.08-146.08ZM277.52,277.9c-15.99,0-28.99-13-28.99-28.99s13-28.99,28.99-28.99,28.99,13,28.99,28.99-13,28.99-28.99,28.99Z"/>
</svg>